<?xml version="1.0" encoding="UTF-8" standalone="no"?>
<svg
   version="1.1"
   viewBox="0 0 1056 816"
   fill="none"
   stroke="none"
   stroke-linecap="square"
   stroke-miterlimit="10"
   id="svg471"
   sodipodi:docname="VM_Sv32.svg"
   width="11in"
   height="8.5in"
   inkscape:version="1.1.2 (0a00cf5339, 2022-02-04)"
   xmlns:inkscape="http://www.inkscape.org/namespaces/inkscape"
   xmlns:sodipodi="http://sodipodi.sourceforge.net/DTD/sodipodi-0.dtd"
   xmlns="http://www.w3.org/2000/svg"
   xmlns:svg="http://www.w3.org/2000/svg">
  <defs
     id="defs475">
    <marker
       style="overflow:visible;"
       id="Arrow1Mend"
       refX="0.0"
       refY="0.0"
       orient="auto"
       inkscape:stockid="Arrow1Mend"
       inkscape:isstock="true">
      <path
         transform="scale(0.4) rotate(180) translate(10,0)"
         style="fill-rule:evenodd;fill:context-stroke;stroke:context-stroke;stroke-width:1.0pt;"
         d="M 0.0,0.0 L 5.0,-5.0 L -12.5,0.0 L 5.0,5.0 L 0.0,0.0 z "
         id="path118757" />
    </marker>
    <marker
       inkscape:isstock="true"
       inkscape:stockid="Arrow2Lend"
       orient="auto"
       refY="0"
       refX="0"
       id="marker1151"
       style="overflow:visible">
      <path
         id="path1149"
         style="fill:context-stroke;fill-rule:evenodd;stroke:#000000;stroke-width:0.625;stroke-linejoin:round;stroke-opacity:1"
         d="M 8.7185878,4.0337352 -2.2072895,0.01601326 8.7185884,-4.0017078 c -1.7454984,2.3720609 -1.7354408,5.6174519 -6e-7,8.035443 z"
         transform="matrix(-1.1,0,0,-1.1,-1.1,0)" />
    </marker>
  </defs>
  <sodipodi:namedview
     id="namedview473"
     pagecolor="#ffffff"
     bordercolor="#666666"
     borderopacity="1.0"
     inkscape:pageshadow="2"
     inkscape:pageopacity="0.0"
     inkscape:pagecheckerboard="0"
     showgrid="false"
     units="in"
     inkscape:zoom="1.9558824"
     inkscape:cx="527.89472"
     inkscape:cy="407.99999"
     inkscape:window-width="2962"
     inkscape:window-height="1821"
     inkscape:window-x="588"
     inkscape:window-y="121"
     inkscape:window-maximized="0"
     inkscape:current-layer="svg471"
     inkscape:document-units="in"
     objecttolerance="1"
     gridtolerance="1"
     guidetolerance="1" />
  <clipPath
     id="g31322d20c6_0_0.0">
    <path
       d="M 0,0 H 960 V 540 H 0 Z"
       clip-rule="nonzero"
       id="path2" />
  </clipPath>
  <rect
     style="fill:#e6e6e6;fill-opacity:1;stroke:#000000;stroke-width:1;stroke-linecap:round;stroke-miterlimit:10;stroke-dasharray:none;stroke-dashoffset:0"
     id="rect214528"
     width="29.974058"
     height="42.636559"
     x="506.1908"
     y="503.80536"
     ry="0.086939797"
     rx="0.086939797" />
  <rect
     style="fill:#e6e6e6;fill-opacity:1;stroke:#000000;stroke-width:1;stroke-linecap:round;stroke-miterlimit:10;stroke-dasharray:none;stroke-dashoffset:0"
     id="rect193529"
     width="29.974058"
     height="42.636559"
     x="542.1908"
     y="503.80536"
     ry="0.086939797"
     rx="0.086939797" />
  <path
     fill="#000000"
     fill-opacity="0"
     d="m 504.84253,295.73491 h 247.90552 v 36.91338 H 504.84253 Z"
     fill-rule="evenodd"
     id="path7" />
  <path
     stroke="#595959"
     stroke-width="1"
     stroke-linejoin="round"
     stroke-linecap="butt"
     d="m 504.84253,295.73491 h 247.90552 v 36.91338 H 504.84253 Z"
     fill-rule="evenodd"
     id="path9" />
  <path
     fill="#000000"
     fill-opacity="0"
     d="M 651.15222,393.59842 H 899.0577 v 36.91339 H 651.15222 Z"
     fill-rule="evenodd"
     id="path15" />
  <path
     stroke="#595959"
     stroke-width="1"
     stroke-linejoin="round"
     stroke-linecap="butt"
     d="M 651.15222,393.59842 H 899.0577 v 36.91339 H 651.15222 Z"
     fill-rule="evenodd"
     id="path17" />
  <path
     fill="#000000"
     fill-opacity="0"
     d="m 221.65355,145.90551 h 516.6929 v 27.81102 h -516.6929 z"
     fill-rule="evenodd"
     id="path19" />
  <path
     fill="#eeeeee"
     d="m 667.30972,393.59842 h 15.59055 v 36.91339 h -15.59055 z"
     fill-rule="evenodd"
     id="path131"
     style="fill:#ffeeaa;fill-opacity:1" />
  <path
     stroke="#595959"
     stroke-width="1"
     stroke-linejoin="round"
     stroke-linecap="butt"
     d="m 667.30972,393.59842 h 15.59055 v 36.91339 h -15.59055 z"
     fill-rule="evenodd"
     id="path133" />
  <path
     fill="#eeeeee"
     d="m 683.30972,393.59842 h 15.59055 v 36.91339 h -15.59055 z"
     fill-rule="evenodd"
     id="path135"
     style="fill:#ffeeaa;fill-opacity:1" />
  <path
     stroke="#595959"
     stroke-width="1"
     stroke-linejoin="round"
     stroke-linecap="butt"
     d="m 683.30972,393.59842 h 15.59055 v 36.91339 h -15.59055 z"
     fill-rule="evenodd"
     id="path137" />
  <path
     fill="#eeeeee"
     d="m 699.30972,393.59842 h 15.59055 v 36.91339 h -15.59055 z"
     fill-rule="evenodd"
     id="path139"
     style="fill:#ffeeaa;fill-opacity:1" />
  <path
     stroke="#595959"
     stroke-width="1"
     stroke-linejoin="round"
     stroke-linecap="butt"
     d="m 699.30972,393.59842 h 15.59055 v 36.91339 h -15.59055 z"
     fill-rule="evenodd"
     id="path141" />
  <path
     fill="#eeeeee"
     d="m 715.30972,393.59842 h 15.59055 v 36.91339 h -15.59055 z"
     fill-rule="evenodd"
     id="path143"
     style="fill:#ffeeaa;fill-opacity:1" />
  <path
     stroke="#595959"
     stroke-width="1"
     stroke-linejoin="round"
     stroke-linecap="butt"
     d="m 715.30972,393.59842 h 15.59055 v 36.91339 h -15.59055 z"
     fill-rule="evenodd"
     id="path145" />
  <path
     fill="#eeeeee"
     d="m 731.30972,393.59842 h 15.59055 v 36.91339 h -15.59055 z"
     fill-rule="evenodd"
     id="path147"
     style="fill:#ffeeaa;fill-opacity:1" />
  <path
     stroke="#595959"
     stroke-width="1"
     stroke-linejoin="round"
     stroke-linecap="butt"
     d="m 731.30972,393.59842 h 15.59055 v 36.91339 h -15.59055 z"
     fill-rule="evenodd"
     id="path149" />
  <path
     fill="#eeeeee"
     d="m 747.30972,393.59842 h 15.59055 v 36.91339 h -15.59055 z"
     fill-rule="evenodd"
     id="path151"
     style="fill:#ffeeaa;fill-opacity:1" />
  <path
     stroke="#595959"
     stroke-width="1"
     stroke-linejoin="round"
     stroke-linecap="butt"
     d="m 747.30972,393.59842 h 15.59055 v 36.91339 h -15.59055 z"
     fill-rule="evenodd"
     id="path153" />
  <path
     fill="#eeeeee"
     d="m 763.30972,393.59842 h 15.59055 v 36.91339 h -15.59055 z"
     fill-rule="evenodd"
     id="path155"
     style="fill:#ffeeaa;fill-opacity:1" />
  <path
     stroke="#595959"
     stroke-width="1"
     stroke-linejoin="round"
     stroke-linecap="butt"
     d="m 763.30972,393.59842 h 15.59055 v 36.91339 h -15.59055 z"
     fill-rule="evenodd"
     id="path157" />
  <path
     fill="#eeeeee"
     d="m 779.30972,393.59842 h 15.59055 v 36.91339 h -15.59055 z"
     fill-rule="evenodd"
     id="path159"
     style="fill:#ffeeaa;fill-opacity:1" />
  <path
     stroke="#595959"
     stroke-width="1"
     stroke-linejoin="round"
     stroke-linecap="butt"
     d="m 779.30972,393.59842 h 15.59055 v 36.91339 h -15.59055 z"
     fill-rule="evenodd"
     id="path161" />
  <path
     fill="#eeeeee"
     d="m 795.30972,393.59842 h 15.59055 v 36.91339 h -15.59055 z"
     fill-rule="evenodd"
     id="path163"
     style="fill:#ffeeaa;fill-opacity:1" />
  <path
     stroke="#595959"
     stroke-width="1"
     stroke-linejoin="round"
     stroke-linecap="butt"
     d="m 795.30972,393.59842 h 15.59055 v 36.91339 h -15.59055 z"
     fill-rule="evenodd"
     id="path165" />
  <path
     fill="#eeeeee"
     d="m 811.30972,393.59842 h 15.59055 v 36.91339 h -15.59055 z"
     fill-rule="evenodd"
     id="path167"
     style="fill:#ffeeaa;fill-opacity:1" />
  <path
     stroke="#595959"
     stroke-width="1"
     stroke-linejoin="round"
     stroke-linecap="butt"
     d="m 811.30972,393.59842 h 15.59055 v 36.91339 h -15.59055 z"
     fill-rule="evenodd"
     id="path169" />
  <path
     fill="#000000"
     fill-opacity="0"
     d="M 675.10498,416.5118 379.19946,488.92125"
     fill-rule="evenodd"
     id="path171" />
  <path
     stroke="#000000"
     stroke-width="1"
     stroke-linejoin="round"
     stroke-linecap="butt"
     d="M 675.03222,416.56725 558.80006,503.59208"
     fill-rule="evenodd"
     id="path173"
     style="stroke-width:1;stroke-miterlimit:10;stroke-dasharray:none;marker-end:url(#Arrow1Mend)" />
  <path
     fill="#000000"
     fill-opacity="0"
     d="m 691.10498,416.5118 -255.9055,72.40945"
     fill-rule="evenodd"
     id="path177" />
  <path
     stroke="#000000"
     stroke-width="0.999997"
     stroke-linejoin="round"
     stroke-linecap="butt"
     d="m 691.03165,416.56149 -97.70661,86.35873"
     fill-rule="evenodd"
     id="path179"
     style="stroke-width:1;stroke-miterlimit:10;stroke-dasharray:none;marker-end:url(#Arrow1Mend)" />
  <path
     fill="#000000"
     fill-opacity="0"
     d="m 707.10498,416.5118 -215.9055,72.40945"
     fill-rule="evenodd"
     id="path183" />
  <path
     stroke="#000000"
     stroke-width="0.999999"
     stroke-linejoin="round"
     stroke-linecap="butt"
     d="m 707.03784,416.5582 -76.31192,85.79522"
     fill-rule="evenodd"
     id="path185"
     style="stroke-width:1;stroke-miterlimit:10;stroke-dasharray:none;marker-end:url(#Arrow1Mend)" />
  <path
     fill="#000000"
     fill-opacity="0"
     d="m 723.10498,416.5118 -175.9055,72.40945"
     fill-rule="evenodd"
     id="path189" />
  <path
     stroke="#000000"
     stroke-width="0.999997"
     stroke-linejoin="round"
     stroke-linecap="butt"
     d="m 723.00768,416.55201 -58.22713,86.97623"
     fill-rule="evenodd"
     id="path191"
     style="stroke-width:1;stroke-miterlimit:10;stroke-dasharray:none;marker-end:url(#Arrow1Mend)" />
  <path
     fill="#000000"
     fill-opacity="0"
     d="M 739.10498,416.5118 603.19946,488.92125"
     fill-rule="evenodd"
     id="path195" />
  <path
     stroke="#000000"
     stroke-width="0.999997"
     stroke-linejoin="round"
     stroke-linecap="butt"
     d="M 739.06577,416.54161 708.83728,502.9475"
     fill-rule="evenodd"
     id="path197"
     style="stroke-width:1;stroke-miterlimit:10;stroke-dasharray:none;marker-end:url(#Arrow1Mend)" />
  <path
     fill="#000000"
     fill-opacity="0"
     d="m 755.10498,416.5118 -95.90552,72.40945"
     fill-rule="evenodd"
     id="path201" />
  <path
     stroke="#000000"
     stroke-width="1"
     stroke-linejoin="round"
     stroke-linecap="butt"
     d="m 755.1808,416.51066 -16.61628,87.53385"
     fill-rule="evenodd"
     id="path203"
     style="stroke-width:1;stroke-miterlimit:10;stroke-dasharray:none;marker-end:url(#Arrow1Mend)" />
  <path
     fill="#000000"
     fill-opacity="0"
     d="m 771.10498,416.5118 -55.90552,72.40945"
     fill-rule="evenodd"
     id="path207" />
  <path
     stroke="#000000"
     stroke-width="0.999998"
     stroke-linejoin="round"
     stroke-linecap="butt"
     d="m 771.12134,416.49962 0.0781,86.42163"
     fill-rule="evenodd"
     id="path209"
     style="stroke-width:1;stroke-miterlimit:10;stroke-dasharray:none;marker-end:url(#Arrow1Mend)" />
  <path
     fill="#000000"
     fill-opacity="0"
     d="m 787.10498,430.5118 -15.90552,72.40945"
     fill-rule="evenodd"
     id="path213" />
  <path
     stroke="#000000"
     stroke-width="1"
     stroke-linejoin="round"
     stroke-linecap="butt"
     d="m 787.19942,416.88347 16.91147,86.03777"
     fill-rule="evenodd"
     id="path215"
     style="stroke-width:1;stroke-miterlimit:10;stroke-dasharray:none;marker-end:url(#Arrow1Mend)" />
  <path
     fill="#000000"
     fill-opacity="0"
     d="m 803.10498,430.5118 24.09448,72.40945"
     fill-rule="evenodd"
     id="path219" />
  <path
     stroke="#000000"
     stroke-width="0.999995"
     stroke-linejoin="round"
     stroke-linecap="butt"
     d="m 802.34332,414.62585 39.73617,86.2255"
     fill-rule="evenodd"
     id="path221"
     style="marker-end:url(#Arrow1Mend)" />
  <path
     fill="#000000"
     fill-opacity="0"
     d="m 819.10498,430.5118 64.09452,72.40945"
     fill-rule="evenodd"
     id="path225" />
  <path
     stroke="#000000"
     stroke-width="1"
     stroke-linejoin="round"
     stroke-linecap="butt"
     d="m 816.64446,417.03791 66.55504,85.88332"
     fill-rule="evenodd"
     id="path227"
     style="marker-end:url(#Arrow1Mend)" />
  <path
     fill="#eeeeee"
     d="m 505.105,295.73491 h 15.59058 v 36.91338 H 505.105 Z"
     fill-rule="evenodd"
     id="path231"
     style="fill:#e9c6af;fill-opacity:1" />
  <path
     stroke="#595959"
     stroke-width="1"
     stroke-linejoin="round"
     stroke-linecap="butt"
     d="m 505.105,295.73491 h 15.59058 v 36.91338 H 505.105 Z"
     fill-rule="evenodd"
     id="path233" />
  <path
     fill="#eeeeee"
     d="m 521.105,295.73491 h 15.59058 v 36.91338 H 521.105 Z"
     fill-rule="evenodd"
     id="path239" />
  <path
     stroke="#595959"
     stroke-width="1"
     stroke-linejoin="round"
     stroke-linecap="butt"
     d="m 521.105,295.73491 h 15.59058 v 36.91338 H 521.105 Z"
     fill-rule="evenodd"
     id="path241"
     style="fill:#e9c6af;fill-opacity:1" />
  <path
     fill="#000000"
     fill-opacity="0"
     d="m 400.90027,332.6483 -129.6063,31.81103"
     fill-rule="evenodd"
     id="path243" />
  <path
     fill="#000000"
     fill-opacity="0"
     d="m 472.90027,332.6483 61.00787,170.29922"
     fill-rule="evenodd"
     id="path249" />
  <path
     stroke="#000000"
     stroke-width="0.999996"
     stroke-linejoin="round"
     stroke-linecap="butt"
     d="m 529.37792,324.23841 121.77432,69.36"
     fill-rule="evenodd"
     id="path251"
     style="marker-end:url(#Arrow1Mend)" />
  <path
     fill="#000000"
     fill-opacity="0"
     d="m 640.90027,279.70341 h 57.98425 v 52.94487 h -57.98425 z"
     fill-rule="evenodd"
     id="path263" />
  <path
     fill="#000000"
     d="m 616.0975,316.93379 v -5.48438 h 5.48437 v 5.48438 z m 11.11328,0 v -5.48438 h 5.48438 v 5.48438 z m 11.11328,0 v -5.48438 h 5.48438 v 5.48438 z"
     fill-rule="nonzero"
     id="path265" />
  <path
     fill="#000000"
     fill-opacity="0"
     d="m 842.90027,375.7034 h 57.98423 v 52.94488 h -57.98423 z"
     fill-rule="evenodd"
     id="path267" />
  <path
     fill="#000000"
     d="m 858.0975,414.7973 v -5.48438 h 5.4844 v 5.48438 z m 11.1133,0 v -5.48438 h 5.4844 v 5.48438 z m 11.1133,0 v -5.48438 h 5.4843 v 5.48438 z"
     fill-rule="nonzero"
     id="path269" />
  <path
     fill="#000000"
     fill-opacity="0"
     d="m 616.90027,236.6483 91.93701,266.2992"
     fill-rule="evenodd"
     id="path271" />
  <path
     fill="#000000"
     fill-opacity="0"
     d="M 506.90027,252.6483 397.07349,284.45932"
     fill-rule="evenodd"
     id="path277" />
  <path
     fill="#000000"
     fill-opacity="0"
     d="m 203.14923,214.72812 289.7953,73.44882"
     fill-rule="evenodd"
     id="path289" />
  <path
     fill="#000000"
     fill-opacity="0"
     d="m 234.10215,208.33046 h 109.10236 v 27.81102 H 234.10215 Z"
     fill-rule="evenodd"
     id="path295" />
  <path
     stroke="#595959"
     stroke-width="1"
     stroke-linejoin="round"
     stroke-linecap="butt"
     d="m 234.10215,208.33046 h 109.10236 v 27.81102 H 234.10215 Z"
     fill-rule="evenodd"
     id="path297" />
  <path
     fill="#000000"
     fill-opacity="0"
     d="m 203.30971,203.021 449.7953,41.44882"
     fill-rule="evenodd"
     id="path301" />
  <path
     fill="#000000"
     fill-opacity="0"
     d="m 490.94972,292.92235 h 31.30707 v 22.48819 h -31.30707 z"
     fill-rule="evenodd"
     id="path315" />
  <path
     fill="#000000"
     fill-opacity="0"
     d="m 383.11023,369.2152 h 31.3071 v 22.48819 h -31.3071 z"
     fill-rule="evenodd"
     id="path323" />
  <path
     fill="#000000"
     d="m 674.0263,385.2593 h -1.17188 v -7.46875 q -0.42187,0.40625 -1.10937,0.8125 -0.6875,0.40625 -1.23438,0.60937 v -1.14062 q 0.98438,-0.45313 1.71875,-1.10938 0.73438,-0.67187 1.03125,-1.28125 h 0.76563 z"
     fill-rule="nonzero"
     id="path325" />
  <path
     fill="#000000"
     fill-opacity="0"
     d="m 399.11023,369.2152 h 31.3071 v 22.48819 h -31.3071 z"
     fill-rule="evenodd"
     id="path327" />
  <path
     fill="#000000"
     d="m 691.76068,384.1343 v 1.125 h -6.29688 q -0.0156,-0.42188 0.14063,-0.8125 0.23437,-0.64063 0.76562,-1.26563 0.53125,-0.625 1.53125,-1.45312 1.5625,-1.26563 2.10938,-2.01563 0.54687,-0.75 0.54687,-1.40625 0,-0.70312 -0.5,-1.17187 -0.5,-0.48438 -1.29687,-0.48438 -0.85938,0 -1.375,0.51563 -0.5,0.5 -0.5,1.39062 l -1.20313,-0.10937 q 0.125,-1.35938 0.92188,-2.0625 0.8125,-0.70313 2.17187,-0.70313 1.375,0 2.17188,0.76563 0.8125,0.75 0.8125,1.875 0,0.57812 -0.23438,1.14062 -0.23437,0.54688 -0.78125,1.15625 -0.54687,0.60938 -1.8125,1.67188 -1.04687,0.89062 -1.35937,1.21875 -0.29688,0.3125 -0.48438,0.625 z"
     fill-rule="nonzero"
     id="path329" />
  <path
     fill="#000000"
     fill-opacity="0"
     d="m 415.11023,369.2152 h 31.3071 v 22.48819 h -31.3071 z"
     fill-rule="evenodd"
     id="path331" />
  <path
     fill="#000000"
     d="m 701.62006,382.74368 1.17188,-0.15625 q 0.20312,1 0.6875,1.4375 0.48437,0.4375 1.17187,0.4375 0.82813,0 1.39063,-0.57813 0.57812,-0.57812 0.57812,-1.42187 0,-0.79688 -0.53125,-1.3125 -0.51562,-0.53125 -1.32812,-0.53125 -0.34375,0 -0.82813,0.125 l 0.125,-1.03125 q 0.125,0.0156 0.1875,0.0156 0.75,0 1.34375,-0.39062 0.60938,-0.39063 0.60938,-1.20313 0,-0.64062 -0.4375,-1.0625 -0.4375,-0.42187 -1.125,-0.42187 -0.6875,0 -1.14063,0.4375 -0.45312,0.42187 -0.59375,1.28125 l -1.17187,-0.21875 q 0.21875,-1.17188 0.98437,-1.8125 0.76563,-0.65625 1.89063,-0.65625 0.78125,0 1.4375,0.34375 0.65625,0.32812 1,0.90625 0.35937,0.57812 0.35937,1.23437 0,0.60938 -0.34375,1.125 -0.32812,0.5 -0.96875,0.79688 0.84375,0.20312 1.3125,0.82812 0.46875,0.60938 0.46875,1.53125 0,1.25 -0.92187,2.125 -0.90625,0.85938 -2.29688,0.85938 -1.25,0 -2.09375,-0.75 -0.82812,-0.75 -0.9375,-1.9375 z"
     fill-rule="nonzero"
     id="path333" />
  <path
     fill="#000000"
     fill-opacity="0"
     d="m 431.11023,369.2152 h 31.3071 v 22.48819 h -31.3071 z"
     fill-rule="evenodd"
     id="path335" />
  <path
     fill="#000000"
     d="m 721.37006,385.2593 v -2.28125 h -4.14062 v -1.07813 l 4.34375,-6.1875 h 0.96875 v 6.1875 h 1.28125 v 1.07813 h -1.28125 v 2.28125 z m 0,-3.35938 v -4.29687 l -2.98437,4.29687 z"
     fill-rule="nonzero"
     id="path337" />
  <path
     fill="#000000"
     fill-opacity="0"
     d="m 447.11023,369.2152 h 31.3071 v 22.48819 h -31.3071 z"
     fill-rule="evenodd"
     id="path339" />
  <path
     fill="#000000"
     d="m 733.60443,382.7593 1.23437,-0.10938 q 0.14063,0.90625 0.64063,1.35938 0.5,0.45312 1.20312,0.45312 0.84375,0 1.42188,-0.64062 0.59375,-0.64063 0.59375,-1.6875 0,-1 -0.5625,-1.57813 -0.5625,-0.59375 -1.48438,-0.59375 -0.5625,0 -1.01562,0.26563 -0.45313,0.25 -0.71875,0.67187 l -1.09375,-0.15625 0.92187,-4.89062 h 4.75 v 1.10937 h -3.8125 l -0.51562,2.5625 q 0.85937,-0.59375 1.79687,-0.59375 1.25,0 2.10938,0.875 0.85937,0.85938 0.85937,2.21875 0,1.29688 -0.75,2.23438 -0.92187,1.15625 -2.5,1.15625 -1.3125,0 -2.14062,-0.71875 -0.8125,-0.73438 -0.9375,-1.9375 z"
     fill-rule="nonzero"
     id="path341" />
  <path
     fill="#000000"
     fill-opacity="0"
     d="m 463.11023,369.2152 h 31.3071 v 22.48819 h -31.3071 z"
     fill-rule="evenodd"
     id="path343" />
  <path
     fill="#000000"
     d="m 755.68256,378.05618 -1.15625,0.0937 q -0.15625,-0.6875 -0.4375,-1 -0.48437,-0.5 -1.17187,-0.5 -0.5625,0 -0.98438,0.3125 -0.5625,0.39062 -0.89062,1.17187 -0.3125,0.76563 -0.3125,2.20313 0.42187,-0.64063 1.03125,-0.95313 0.60937,-0.3125 1.28125,-0.3125 1.17187,0 1.98437,0.85938 0.82813,0.85937 0.82813,2.23437 0,0.89063 -0.39063,1.67188 -0.375,0.76562 -1.0625,1.17187 -0.67187,0.40625 -1.53125,0.40625 -1.46875,0 -2.39062,-1.0625 -0.92188,-1.07812 -0.92188,-3.5625 0,-2.76562 1.01563,-4.01562 0.90625,-1.09375 2.40625,-1.09375 1.125,0 1.84375,0.64062 0.71875,0.625 0.85937,1.73438 z m -4.78125,4.10937 q 0,0.60938 0.25,1.17188 0.26563,0.54687 0.71875,0.84375 0.46875,0.28125 0.98438,0.28125 0.73437,0 1.26562,-0.59375 0.54688,-0.60938 0.54688,-1.64063 0,-0.98437 -0.53125,-1.54687 -0.53125,-0.57813 -1.32813,-0.57813 -0.79687,0 -1.35937,0.57813 -0.54688,0.5625 -0.54688,1.48437 z"
     fill-rule="nonzero"
     id="path345" />
  <path
     fill="#000000"
     fill-opacity="0"
     d="m 479.11023,369.2152 h 31.3071 v 22.48819 h -31.3071 z"
     fill-rule="evenodd"
     id="path347" />
  <path
     fill="#000000"
     d="m 765.68256,376.96243 v -1.125 h 6.1875 v 0.92187 q -0.92187,0.96875 -1.8125,2.57813 -0.89062,1.59375 -1.375,3.29687 -0.35937,1.20313 -0.45312,2.625 h -1.20313 q 0.0156,-1.125 0.4375,-2.71875 0.42188,-1.59375 1.20313,-3.07812 0.79687,-1.48438 1.6875,-2.5 z"
     fill-rule="nonzero"
     id="path349" />
  <path
     fill="#000000"
     fill-opacity="0"
     d="m 495.11023,369.2152 h 31.3071 v 22.48819 h -31.3071 z"
     fill-rule="evenodd"
     id="path351" />
  <path
     fill="#000000"
     d="m 783.41693,380.08743 q -0.73438,-0.26563 -1.09375,-0.76563 -0.34375,-0.5 -0.34375,-1.1875 0,-1.03125 0.75,-1.73437 0.75,-0.71875 1.98437,-0.71875 1.25,0 2.01563,0.73437 0.76562,0.71875 0.76562,1.75 0,0.67188 -0.35937,1.17188 -0.34375,0.48437 -1.04688,0.75 0.875,0.28125 1.32813,0.92187 0.46875,0.64063 0.46875,1.51563 0,1.23437 -0.875,2.0625 -0.85938,0.82812 -2.26563,0.82812 -1.42187,0 -2.28125,-0.82812 -0.85937,-0.84375 -0.85937,-2.09375 0,-0.92188 0.46875,-1.54688 0.46875,-0.64062 1.34375,-0.85937 z m -0.23438,-1.98438 q 0,0.67188 0.4375,1.10938 0.4375,0.42187 1.125,0.42187 0.67188,0 1.10938,-0.42187 0.4375,-0.42188 0.4375,-1.04688 0,-0.64062 -0.45313,-1.07812 -0.4375,-0.4375 -1.10937,-0.4375 -0.67188,0 -1.10938,0.4375 -0.4375,0.42187 -0.4375,1.01562 z m -0.375,4.40625 q 0,0.5 0.23438,0.96875 0.23437,0.46875 0.70312,0.73438 0.46875,0.25 1.01563,0.25 0.82812,0 1.375,-0.53125 0.54687,-0.54688 0.54687,-1.39063 0,-0.84375 -0.5625,-1.39062 -0.5625,-0.5625 -1.40625,-0.5625 -0.82812,0 -1.375,0.54687 -0.53125,0.54688 -0.53125,1.375 z"
     fill-rule="nonzero"
     id="path353" />
  <path
     fill="#000000"
     fill-opacity="0"
     d="m 511.11023,369.2152 h 31.3071 v 22.48819 h -31.3071 z"
     fill-rule="evenodd"
     id="path355" />
  <path
     fill="#000000"
     d="m 797.79193,383.05618 1.125,-0.10938 q 0.14062,0.79688 0.54687,1.15625 0.40625,0.35938 1.03125,0.35938 0.53125,0 0.9375,-0.25 0.42188,-0.25 0.67188,-0.65625 0.26562,-0.42188 0.4375,-1.125 0.17187,-0.70313 0.17187,-1.42188 0,-0.0781 0,-0.23437 -0.35937,0.54687 -0.96875,0.90625 -0.59375,0.34375 -1.3125,0.34375 -1.1875,0 -2.01562,-0.85938 -0.8125,-0.85937 -0.8125,-2.26562 0,-1.45313 0.85937,-2.32813 0.85938,-0.89062 2.14063,-0.89062 0.9375,0 1.70312,0.5 0.78125,0.5 1.17188,1.4375 0.40625,0.92187 0.40625,2.67187 0,1.82813 -0.40625,2.92188 -0.39063,1.07812 -1.17188,1.64062 -0.78125,0.5625 -1.84375,0.5625 -1.10937,0 -1.82812,-0.60937 -0.70313,-0.625 -0.84375,-1.75 z m 4.79687,-4.21875 q 0,-1 -0.54687,-1.59375 -0.53125,-0.59375 -1.28125,-0.59375 -0.78125,0 -1.375,0.64062 -0.57813,0.64063 -0.57813,1.65625 0,0.90625 0.54688,1.48438 0.5625,0.5625 1.35937,0.5625 0.82813,0 1.34375,-0.5625 0.53125,-0.57813 0.53125,-1.59375 z"
     fill-rule="nonzero"
     id="path357" />
  <path
     fill="#000000"
     fill-opacity="0"
     d="m 526.41733,369.2152 h 35.46457 v 22.48819 h -35.46457 z"
     fill-rule="evenodd"
     id="path359" />
  <path
     fill="#000000"
     d="m 813.68912,385.2593 3.65625,-9.54688 h 1.35937 l 3.90625,9.54688 h -1.4375 l -1.10937,-2.89063 h -3.98438 l -1.04687,2.89063 z m 2.75,-3.92188 h 3.23437 l -1,-2.64062 q -0.45312,-1.20313 -0.67187,-1.96875 -0.1875,0.90625 -0.51563,1.8125 z"
     fill-rule="nonzero"
     id="path361" />
  <path
     fill="#000000"
     fill-opacity="0"
     d="m 226.93402,252.92235 h 89.98425 v 22.48819 h -89.98425 z"
     fill-rule="evenodd"
     id="path363" />
  <path
     fill="#000000"
     fill-opacity="0"
     d="m 251.09448,353.2152 h 94.20474 v 22.48819 h -94.20474 z"
     fill-rule="evenodd"
     id="path367" />
  <path
     fill="#000000"
     fill-opacity="0"
     d="m 307.09448,273.21523 h 89.98425 v 22.48819 h -89.98425 z"
     fill-rule="evenodd"
     id="path419" />
  <path
     fill="#000000"
     fill-opacity="0"
     d="M 37.845146,344.65616 H 156.99475 v 36.91339 H 37.845146 Z"
     fill-rule="evenodd"
     id="path455" />
  <text
     xml:space="preserve"
     style="font-style:normal;font-weight:normal;font-size:10.6667px;line-height:1.25;font-family:sans-serif;letter-spacing:0px;word-spacing:0px;fill:#000000;fill-opacity:1;stroke:none"
     x="582.64209"
     y="415.18533"
     id="text17491"><tspan
       sodipodi:role="line"
       id="tspan17489"
       x="582.64209"
       y="415.18533"
       style="font-style:italic;font-size:10.6667px">Level 0 PTN</tspan></text>
  <text
     xml:space="preserve"
     style="font-style:normal;font-weight:normal;font-size:10.6667px;line-height:1.25;font-family:sans-serif;letter-spacing:0px;word-spacing:0px;fill:#000000;fill-opacity:1;stroke:none"
     x="436.89276"
     y="317.32184"
     id="text27489"><tspan
       sodipodi:role="line"
       id="tspan27487"
       x="436.89276"
       y="317.32184"
       style="font-style:italic;font-size:10.6667px">Level 1 PTN</tspan></text>
  <text
     xml:space="preserve"
     style="font-style:normal;font-weight:normal;font-size:10.6667px;line-height:1.25;font-family:sans-serif;letter-spacing:0px;word-spacing:0px;fill:#000000;fill-opacity:1;stroke:none"
     x="507.79163"
     y="512.97778"
     id="text92759"><tspan
       sodipodi:role="line"
       x="507.79163"
       y="512.97778"
       style="font-style:italic;font-size:10.6667px"
       id="tspan92757">not</tspan><tspan
       sodipodi:role="line"
       x="507.79163"
       y="526.31116"
       style="font-style:italic;font-size:10.6667px"
       id="tspan94783">map-</tspan><tspan
       sodipodi:role="line"
       x="507.79163"
       y="539.64453"
       style="font-style:italic;font-size:10.6667px"
       id="tspan94787">ped</tspan></text>
  <text
     xml:space="preserve"
     style="font-style:normal;font-weight:normal;font-size:10.6667px;line-height:1.25;font-family:sans-serif;letter-spacing:0px;word-spacing:0px;fill:#000000;fill-opacity:1;stroke:none"
     x="509.32843"
     y="291.82547"
     id="text110662"><tspan
       sodipodi:role="line"
       x="509.32843"
       y="291.82547"
       style="font-size:10.6667px"
       id="tspan110660">0</tspan></text>
  <text
     xml:space="preserve"
     style="font-style:normal;font-weight:normal;font-size:10.6667px;line-height:1.25;font-family:sans-serif;letter-spacing:0px;word-spacing:0px;fill:#000000;fill-opacity:1;stroke:none"
     x="525.32843"
     y="291.82547"
     id="text114978"><tspan
       sodipodi:role="line"
       x="525.32843"
       y="291.82547"
       style="font-size:10.6667px"
       id="tspan114976">1</tspan></text>
  <path
     stroke="#000000"
     stroke-width="0.999996"
     stroke-linejoin="round"
     stroke-linecap="butt"
     d="M 512.97499,323.62394 312.57266,502.44854"
     fill-rule="evenodd"
     id="path138732"
     style="marker-end:url(#Arrow1Mend)" />
  <text
     xml:space="preserve"
     style="font-style:normal;font-weight:normal;font-size:10.6667px;line-height:1.25;font-family:sans-serif;letter-spacing:0px;word-spacing:0px;fill:#000000;fill-opacity:1;stroke:none"
     x="506.11438"
     y="497.27454"
     id="text146126"><tspan
       sodipodi:role="line"
       id="tspan146124"
       x="506.11438"
       y="497.27454"
       style="font-style:italic;font-size:10.6667px">4K pages</tspan></text>
  <rect
     style="fill:#e6e6e6;fill-opacity:1;stroke:#000000;stroke-width:1;stroke-linecap:round;stroke-miterlimit:10;stroke-dasharray:none;stroke-dashoffset:0"
     id="rect213329"
     width="29.974058"
     height="42.636559"
     x="578.1908"
     y="503.80536"
     ry="0.086939797"
     rx="0.086939797" />
  <rect
     style="fill:#e6e6e6;fill-opacity:1;stroke:#000000;stroke-width:1;stroke-linecap:round;stroke-miterlimit:10;stroke-dasharray:none;stroke-dashoffset:0"
     id="rect213499"
     width="29.974058"
     height="42.636559"
     x="614.1908"
     y="503.80536"
     ry="0.086939797"
     rx="0.086939797" />
  <rect
     style="fill:#e6e6e6;fill-opacity:1;stroke:#000000;stroke-width:1;stroke-linecap:round;stroke-miterlimit:10;stroke-dasharray:none;stroke-dashoffset:0"
     id="rect213685"
     width="29.974058"
     height="42.636559"
     x="650.1908"
     y="503.80536"
     ry="0.086939797"
     rx="0.086939797" />
  <rect
     style="fill:#e6e6e6;fill-opacity:1;stroke:#000000;stroke-width:1;stroke-linecap:round;stroke-miterlimit:10;stroke-dasharray:none;stroke-dashoffset:0"
     id="rect213695"
     width="29.974058"
     height="42.636559"
     x="686.1908"
     y="503.80536"
     ry="0.086939797"
     rx="0.086939797" />
  <rect
     style="fill:#e6e6e6;fill-opacity:1;stroke:#000000;stroke-width:1;stroke-linecap:round;stroke-miterlimit:10;stroke-dasharray:none;stroke-dashoffset:0"
     id="rect213705"
     width="29.974058"
     height="42.636559"
     x="722.1908"
     y="503.80536"
     ry="0.086939797"
     rx="0.086939797" />
  <rect
     style="fill:#e6e6e6;fill-opacity:1;stroke:#000000;stroke-width:1;stroke-linecap:round;stroke-miterlimit:10;stroke-dasharray:none;stroke-dashoffset:0"
     id="rect213715"
     width="29.974058"
     height="42.636559"
     x="758.1908"
     y="503.80536"
     ry="0.086939797"
     rx="0.086939797" />
  <rect
     style="fill:#e6e6e6;fill-opacity:1;stroke:#000000;stroke-width:1;stroke-linecap:round;stroke-miterlimit:10;stroke-dasharray:none;stroke-dashoffset:0"
     id="rect213725"
     width="29.974058"
     height="42.636559"
     x="794.1908"
     y="503.80536"
     ry="0.086939797"
     rx="0.086939797" />
  <rect
     style="fill:#e6e6e6;fill-opacity:1;stroke:#000000;stroke-width:1;stroke-linecap:round;stroke-miterlimit:10;stroke-dasharray:none;stroke-dashoffset:0"
     id="rect213735"
     width="29.974058"
     height="42.636559"
     x="830.1908"
     y="503.80536"
     ry="0.086939797"
     rx="0.086939797" />
  <rect
     style="fill:#e6e6e6;fill-opacity:1;stroke:#000000;stroke-width:1;stroke-linecap:round;stroke-miterlimit:10;stroke-dasharray:none;stroke-dashoffset:0"
     id="rect213745"
     width="29.974058"
     height="42.636559"
     x="868.1908"
     y="503.80536"
     ry="0.086939797"
     rx="0.086939797" />
  <rect
     style="fill:#ffeeaa;fill-opacity:1;stroke:#000000;stroke-width:1;stroke-linecap:round;stroke-miterlimit:10;stroke-dasharray:none;stroke-dashoffset:0"
     id="rect273138"
     width="188.70903"
     height="42.636559"
     x="311.45578"
     y="503.80536"
     ry="0.086939797"
     rx="0.086939797" />
  <text
     xml:space="preserve"
     style="font-style:normal;font-weight:normal;font-size:10.6667px;line-height:1.25;font-family:sans-serif;letter-spacing:0px;word-spacing:0px;fill:#000000;fill-opacity:1;stroke:none"
     x="364.11438"
     y="497.27454"
     id="text273156"><tspan
       sodipodi:role="line"
       id="tspan273154"
       x="364.11438"
       y="497.27454"
       style="font-style:italic;font-size:10.6667px">2MiB Megapage</tspan></text>
  <path
     stroke="#000000"
     stroke-width="0.999989"
     stroke-linejoin="round"
     stroke-linecap="butt"
     d="m 332.28636,224.71395 167.89223,69.38191"
     fill-rule="evenodd"
     id="path298692"
     style="marker-end:url(#Arrow1Mend)" />
  <text
     xml:space="preserve"
     style="font-style:normal;font-weight:normal;font-size:18.6667px;line-height:1.25;font-family:sans-serif;letter-spacing:0px;word-spacing:0px;fill:#000000;fill-opacity:1;stroke:none"
     x="144.83875"
     y="227.3886"
     id="text27476"><tspan
       sodipodi:role="line"
       id="tspan27474"
       x="144.83875"
       y="227.3886"
       style="font-size:18.6667px">CSR satp</tspan></text>
  <path
     stroke="#595959"
     stroke-width="0.999998"
     stroke-linejoin="round"
     stroke-linecap="butt"
     d="m 698.2875,176.60423 h 149.1211 v 18.5703 H 698.2875 Z"
     fill-rule="evenodd"
     id="path34695" />
  <path
     stroke="#595959"
     stroke-width="1"
     stroke-linejoin="round"
     stroke-linecap="butt"
     d="m 785.58368,176.60423 h 61.82493 v 18.5703 h -61.82493 z"
     fill-rule="evenodd"
     id="path34697"
     style="fill:#e6e6e6;fill-opacity:1" />
  <path
     stroke="#595959"
     stroke-width="1"
     stroke-linejoin="round"
     stroke-linecap="butt"
     d="m 740.55254,176.60423 h 44.85607 v 18.5703 h -44.85607 z"
     fill-rule="evenodd"
     id="path34699"
     style="fill:#ffeeaa;fill-opacity:1" />
  <path
     stroke="#595959"
     stroke-width="1"
     stroke-linejoin="round"
     stroke-linecap="butt"
     d="m 696.55254,176.60423 h 44.85607 v 18.5703 h -44.85607 z"
     fill-rule="evenodd"
     id="path34783"
     style="fill:#e9c6af;fill-opacity:1" />
  <text
     xml:space="preserve"
     style="font-style:normal;font-weight:normal;font-size:18.6667px;line-height:1.25;font-family:sans-serif;letter-spacing:0px;word-spacing:0px;fill:#000000;fill-opacity:1;stroke:none"
     x="548.40198"
     y="191.26164"
     id="text43667"><tspan
       sodipodi:role="line"
       id="tspan43665"
       x="548.40198"
       y="191.26164"
       style="font-size:18.6667px">virtual address</tspan></text>
  <text
     xml:space="preserve"
     style="font-style:normal;font-weight:normal;font-size:13.3333px;line-height:1.25;font-family:sans-serif;letter-spacing:0px;word-spacing:0px;fill:#000000;fill-opacity:1;stroke:none"
     x="805.11383"
     y="191.61469"
     id="text44987"><tspan
       sodipodi:role="line"
       id="tspan44985"
       x="805.11383"
       y="191.61469"
       style="font-size:13.3333px">12b</tspan></text>
  <text
     xml:space="preserve"
     style="font-style:normal;font-weight:normal;font-size:13.3333px;line-height:1.25;font-family:sans-serif;letter-spacing:0px;word-spacing:0px;fill:#000000;fill-opacity:1;stroke:none"
     x="751.11383"
     y="191.61469"
     id="text50151"><tspan
       sodipodi:role="line"
       id="tspan50149"
       x="751.11383"
       y="191.61469"
       style="font-size:13.3333px">10b</tspan></text>
  <text
     xml:space="preserve"
     style="font-style:normal;font-weight:normal;font-size:13.3333px;line-height:1.25;font-family:sans-serif;letter-spacing:0px;word-spacing:0px;fill:#000000;fill-opacity:1;stroke:none"
     x="709.11383"
     y="191.61469"
     id="text51687"><tspan
       sodipodi:role="line"
       id="tspan51685"
       x="709.11383"
       y="191.61469"
       style="font-size:13.3333px">10b</tspan></text>
  <text
     xml:space="preserve"
     style="font-style:normal;font-weight:normal;font-size:13.3333px;line-height:1.25;font-family:sans-serif;letter-spacing:0px;word-spacing:0px;fill:#000000;fill-opacity:1;stroke:none"
     x="839.11383"
     y="171.61469"
     id="text51695"><tspan
       sodipodi:role="line"
       id="tspan51693"
       x="839.11383"
       y="171.61469"
       style="font-size:13.3333px">0</tspan></text>
  <text
     xml:space="preserve"
     style="font-style:normal;font-weight:normal;font-size:13.3333px;line-height:1.25;font-family:sans-serif;letter-spacing:0px;word-spacing:0px;fill:#000000;fill-opacity:1;stroke:none"
     x="697.11383"
     y="171.61469"
     id="text52935"><tspan
       sodipodi:role="line"
       x="697.11383"
       y="171.61469"
       style="font-size:13.3333px"
       id="tspan53679">31</tspan></text>
  <path
     style="fill:none;stroke:#e9c6af;stroke-width:0.959999;stroke-linecap:butt;stroke-linejoin:miter;stroke-miterlimit:4;stroke-dasharray:none;stroke-opacity:1"
     d="M 506.43778,279.60079 H 580.7299"
     id="path59794"
     inkscape:connector-curvature="0" />
  <path
     style="fill:none;stroke:#e9c6af;stroke-width:0.96;stroke-linecap:butt;stroke-linejoin:miter;stroke-miterlimit:4;stroke-dasharray:none;stroke-opacity:1"
     d="m 581.17124,272.06748 v 15.06661"
     id="path59796"
     inkscape:connector-curvature="0" />
  <path
     style="fill:none;stroke:#e9c6af;stroke-width:0.96;stroke-linecap:butt;stroke-linejoin:miter;stroke-miterlimit:4;stroke-dasharray:none;stroke-opacity:1"
     d="m 507.17124,272.06748 v 15.06661"
     id="path59798"
     inkscape:connector-curvature="0" />
  <path
     style="fill:none;stroke:#e9c6af;stroke-width:1.92;stroke-linecap:butt;stroke-linejoin:miter;stroke-miterlimit:10;stroke-dasharray:none;stroke-opacity:1;marker-end:url(#marker1151)"
     d="m 721.10506,194.89752 c -4.32067,15.1371 -12.28155,47.3294 -59.86212,63.68185 -35.37332,12.15707 -94.57807,-12.6422 -117.45457,18.09142"
     id="path61500"
     sodipodi:nodetypes="csc" />
  <path
     style="fill:none;stroke:#de8787;stroke-width:0.96;stroke-linecap:butt;stroke-linejoin:miter;stroke-miterlimit:4;stroke-dasharray:none;stroke-opacity:1"
     d="M 650.43781,370.61295 H 789.14859"
     id="path62443"
     inkscape:connector-curvature="0" />
  <path
     style="fill:none;stroke:#de8787;stroke-width:0.96;stroke-linecap:butt;stroke-linejoin:miter;stroke-miterlimit:4;stroke-dasharray:none;stroke-opacity:1"
     d="m 789.17124,361.31367 v 15.06661"
     id="path62445"
     inkscape:connector-curvature="0" />
  <path
     style="fill:none;stroke:#de8787;stroke-width:0.96;stroke-linecap:butt;stroke-linejoin:miter;stroke-miterlimit:4;stroke-dasharray:none;stroke-opacity:1"
     d="m 651.17124,361.31367 v 15.06661"
     id="path62447"
     inkscape:connector-curvature="0" />
  <path
     style="fill:none;stroke:#ffeeaa;stroke-width:1.92;stroke-linecap:butt;stroke-linejoin:miter;stroke-miterlimit:10;stroke-dasharray:none;stroke-opacity:1;marker-end:url(#marker1151)"
     d="m 759.46154,196.38401 c 17.4515,68.28774 33.73395,113.95521 -9.54511,168.94998"
     id="path67921"
     sodipodi:nodetypes="cc" />
  <path
     style="fill:none;stroke:#e6e6e6;stroke-width:0.959999;stroke-linecap:butt;stroke-linejoin:miter;stroke-miterlimit:4;stroke-dasharray:none;stroke-opacity:1"
     d="m 831.13028,486.61295 h 20.01831"
     id="path84872"
     inkscape:connector-curvature="0" />
  <path
     style="fill:none;stroke:#e6e6e6;stroke-width:0.96;stroke-linecap:butt;stroke-linejoin:miter;stroke-miterlimit:4;stroke-dasharray:none;stroke-opacity:1"
     d="m 851.17124,479.31367 v 15.06661"
     id="path84874"
     inkscape:connector-curvature="0" />
  <path
     style="fill:none;stroke:#e6e6e6;stroke-width:0.96;stroke-linecap:butt;stroke-linejoin:miter;stroke-miterlimit:4;stroke-dasharray:none;stroke-opacity:1"
     d="m 831.17124,479.31367 v 15.06661"
     id="path84876"
     inkscape:connector-curvature="0" />
  <path
     style="fill:none;stroke:#e6e6e6;stroke-width:1.92;stroke-linecap:butt;stroke-linejoin:miter;stroke-miterlimit:10;stroke-dasharray:none;stroke-opacity:1;marker-end:url(#marker1151)"
     d="m 818.71817,197.22836 c 29.07035,96.98094 29.68201,191.84645 24.85351,286.41874"
     id="path86284"
     sodipodi:nodetypes="cc" />
</svg>
